name C:\Users\u0101727\Documents\MyRepositories\upper-imu-dc\OpenSim\subject0\MA\MA_Splines\angle_in_n6_dof6_3.mot
datacolumns 7
datarows 27
range 350.01000000 350.27000000
endheader 
time	clav_prot	clav_elev	scapula_abduction	scapula_elevation	scapula_upward_rot	scapula_winging	
        350.01000000	        -33.36984042	         -2.74924671	        -30.88730313	         -7.82036939	         54.58874201	          2.91144792	
        350.02000000	        -27.88187210	         -2.74924671	        -30.88730313	         -7.82036939	         54.58874201	          2.91144792	
        350.03000000	        -22.39390379	         -2.74924671	        -30.88730313	         -7.82036939	         54.58874201	          2.91144792	
        350.04000000	        -16.90593547	         -2.74924671	        -30.88730313	         -7.82036939	         54.58874201	          2.91144792	
        350.05000000	        -44.34577705	          2.15399008	        -30.88730313	         -7.82036939	         54.58874201	          2.91144792	
        350.06000000	        -38.85780873	          2.15399008	        -30.88730313	         -7.82036939	         54.58874201	          2.91144792	
        350.07000000	        -33.36984042	          2.15399008	        -30.88730313	         -7.82036939	         54.58874201	          2.91144792	
        350.08000000	        -27.88187210	          2.15399008	        -30.88730313	         -7.82036939	         54.58874201	          2.91144792	
        350.09000000	        -22.39390379	          2.15399008	        -30.88730313	         -7.82036939	         54.58874201	          2.91144792	
        350.10000000	        -16.90593547	          2.15399008	        -30.88730313	         -7.82036939	         54.58874201	          2.91144792	
        350.11000000	        -44.34577705	          7.05722688	        -30.88730313	         -7.82036939	         54.58874201	          2.91144792	
        350.12000000	        -38.85780873	          7.05722688	        -30.88730313	         -7.82036939	         54.58874201	          2.91144792	
        350.13000000	        -33.36984042	          7.05722688	        -30.88730313	         -7.82036939	         54.58874201	          2.91144792	
        350.14000000	        -27.88187210	          7.05722688	        -30.88730313	         -7.82036939	         54.58874201	          2.91144792	
        350.15000000	        -22.39390379	          7.05722688	        -30.88730313	         -7.82036939	         54.58874201	          2.91144792	
        350.16000000	        -16.90593547	          7.05722688	        -30.88730313	         -7.82036939	         54.58874201	          2.91144792	
        350.17000000	        -44.34577705	         11.96046367	        -30.88730313	         -7.82036939	         54.58874201	          2.91144792	
        350.18000000	        -38.85780873	         11.96046367	        -30.88730313	         -7.82036939	         54.58874201	          2.91144792	
        350.19000000	        -33.36984042	         11.96046367	        -30.88730313	         -7.82036939	         54.58874201	          2.91144792	
        350.20000000	        -27.88187210	         11.96046367	        -30.88730313	         -7.82036939	         54.58874201	          2.91144792	
        350.21000000	        -22.39390379	         11.96046367	        -30.88730313	         -7.82036939	         54.58874201	          2.91144792	
        350.22000000	        -16.90593547	         11.96046367	        -30.88730313	         -7.82036939	         54.58874201	          2.91144792	
        350.23000000	        -44.34577705	         16.86370047	        -30.88730313	         -7.82036939	         54.58874201	          2.91144792	
        350.24000000	        -38.85780873	         16.86370047	        -30.88730313	         -7.82036939	         54.58874201	          2.91144792	
        350.25000000	        -33.36984042	         16.86370047	        -30.88730313	         -7.82036939	         54.58874201	          2.91144792	
        350.26000000	        -27.88187210	         16.86370047	        -30.88730313	         -7.82036939	         54.58874201	          2.91144792	
        350.27000000	        -22.39390379	         16.86370047	        -30.88730313	         -7.82036939	         54.58874201	          2.91144792	
